<?xml version="1.0" encoding="iso-8859-1"?>
<!-- Uploaded to: SVG Repo, www.svgrepo.com, Generator: SVG Repo Mixer Tools -->
<!DOCTYPE svg PUBLIC "-//W3C//DTD SVG 1.1//EN" "http://www.w3.org/Graphics/SVG/1.1/DTD/svg11.dtd">
<svg fill="#000000" version="1.1" id="Capa_1" xmlns="http://www.w3.org/2000/svg" xmlns:xlink="http://www.w3.org/1999/xlink" 
	 width="800px" height="800px" viewBox="0 0 387.582 387.582"
	 xml:space="preserve">
<g>
	<g>
		<path d="M321.491,214.324l11.71-11.71c0.538-0.539,0.817-1.252,0.817-1.991c0-0.732-0.298-1.455-0.817-1.98
			c-13.273-13.278-30.938-20.601-49.717-20.601c-18.787,0-36.433,7.323-49.708,20.601c-27.416,27.414-27.416,72.014,0,99.421
			c0.534,0.53,1.246,0.814,1.985,0.814c0.732,0,1.457-0.295,1.98-0.814l11.71-11.71l51.154,51.151
			c9.618,9.637,22.422,14.928,36.042,14.928c13.61,0,26.408-5.291,36.027-14.928c19.875-19.863,19.875-52.187,0-72.036
			L321.491,214.324z M235.794,292.093c-23.262-25.346-22.621-64.92,1.938-89.479c12.24-12.229,28.47-18.965,45.753-18.965
			c16.348,0,31.779,6.024,43.741,17.012L235.794,292.093z M368.687,333.555c-8.553,8.568-19.965,13.288-32.066,13.288
			c-12.112,0-23.501-4.72-32.087-13.288l-51.15-51.152l32.063-32.071l32.077-32.055l51.158,51.151
			C386.369,287.125,386.369,315.886,368.687,333.555z"/>
		<path d="M318.246,248.285c-1.078-1.084-2.867-1.084-3.962,0c-1.076,1.083-1.076,2.867,0,3.961l35.814,35.798
			c0.553,0.56,1.271,0.821,1.986,0.821c0.719,0,1.434-0.274,1.982-0.821c1.093-1.083,1.093-2.867,0-3.95L318.246,248.285z"/>
		<path d="M104.057,178.046c-18.786,0-36.434,7.324-49.708,20.607c-1.095,1.078-1.095,2.867,0,3.961l11.704,11.7L14.9,265.469
			c-19.868,19.861-19.868,52.184,0,72.048c9.62,9.625,22.418,14.916,36.029,14.916c13.608,0,26.401-5.291,36.027-14.916
			l51.157-51.153l11.706,11.7c0.552,0.565,1.269,0.814,1.987,0.814c0.715,0,1.438-0.272,1.979-0.814
			c13.282-13.27,20.597-30.934,20.597-49.702c0-18.791-7.315-36.438-20.597-49.708C140.5,185.376,122.841,178.046,104.057,178.046z
			 M83,333.555c-8.559,8.568-19.957,13.288-32.066,13.288c-12.114,0-23.497-4.72-32.065-13.288c-17.68-17.669-17.68-46.43,0-64.116
			l51.152-51.151l32.065,32.055l32.065,32.076L83,333.555z M151.755,292.093l-11.65-11.645c-0.005-0.011-0.005-0.011-0.01-0.021
			l-34.047-34.047l-45.702-45.702c11.96-10.988,27.387-17.013,43.731-17.013c17.281,0,33.522,6.737,45.747,18.96
			c12.224,12.225,18.954,28.477,18.954,45.758C168.769,264.712,162.744,280.131,151.755,292.093z"/>
		<path d="M100.187,279.152L64.39,314.966c-1.095,1.078-1.095,2.878,0,3.964c0.546,0.557,1.263,0.813,1.98,0.813
			c0.723,0,1.44-0.274,1.986-0.813l35.799-35.816c1.094-1.078,1.094-2.867,0-3.961C103.072,278.074,101.287,278.074,100.187,279.152
			z"/>
		<path d="M193.781,35.15c-1.544,0-2.802,1.267-2.802,2.802v119.547l-36.954,36.963c-1.088,1.083-1.088,2.867,0,3.962
			c0.554,0.547,1.271,0.814,1.986,0.814c0.718,0,1.439-0.278,1.981-0.814l35.793-35.803l35.788,35.803
			c0.547,0.547,1.268,0.814,1.984,0.814c0.725,0,1.439-0.278,1.98-0.814c1.097-1.095,1.097-2.879,0-3.962l-36.952-36.974V37.952
			C196.582,36.4,195.312,35.15,193.781,35.15z"/>
	</g>
</g>
</svg>